{"accessors" : [{"bufferView" : 0, "byteOffset" : 0, "componentType" : 5125, "count" : 104364, "type" : "SCALAR", "max" : [69580], "min" : [0]}, {"bufferView" : 1, "byteOffset" : 0, "componentType" : 5126, "count" : 69581, "type" : "VEC3", "max" : [0.8378210067749023, 0.9443280100822449, 0.30555999279022217], "min" : [-0.8413529992103577, -0.9513850212097168, -0.30486100912094116], "name" : "POSITION"}, {"bufferView" : 1, "byteOffset" : 12, "componentType" : 5126, "count" : 69581, "type" : "VEC3", "max" : [1.000001311302185, 1.0000044107437134, 1.0000040531158447], "min" : [-1.0000039339065552, -1.0000044107437134, -0.9999983310699463], "name" : "NORMAL"}, {"bufferView" : 1, "byteOffset" : 24, "componentType" : 5126, "count" : 69581, "type" : "VEC2", "max" : [0.9986910223960876, 0.9991359710693359], "min" : [0.0008640000014565885, 0.0008640289306640625], "name" : "TEXCOORD_0"}], "asset" : {"generator" : "Aspose.3D 25.3.0", "version" : "2.0"}, "buffers" : [{"uri" : "data:application/octet-stream;base64,", "byteLength" : 2644056}], "bufferViews" : [{"buffer" : 0, "byteOffset" : 0, "byteLength" : 417456, "target" : 34963}, {"buffer" : 0, "byteOffset" : 417460, "byteLength" : 2226592, "byteStride" : 32, "target" : 34962}], "cameras" : [{"perspective" : {"aspectRatio" : 1.5, "yfov" : 0.6911112070083618, "zfar" : 10000, "znear" : 10.000000149011612}, "type" : "perspective", "name" : "Camera"}], "materials" : [{"name" : "Material.001", "pbrMetallicRoughness" : {"baseColorFactor" : [0.800000011920929, 0.800000011920929, 0.800000011920929, 1], "metallicFactor" : 1, "roughnessFactor" : 1}, "emissiveFactor" : [0, 0, 0], "alphaMode" : "OPAQUE", "doubleSided" : false}], "meshes" : [{"primitives" : [{"attributes" : {"POSITION" : 1, "NORMAL" : 2, "TEXCOORD_0" : 3}, "indices" : 0, "material" : 0, "mode" : 4}], "name" : "base"}], "nodes" : [{"camera" : 0, "matrix" : [-65.15581275167911, -44.527139154551755, -61.417049289096546, 0, -32.401349332924404, 89.5395728270982, -30.542085476036892, 0, 68.59207001076241, 8.666908834403258E-06, -72.76761921184276, 0, 735.88916015625, 495.8309326171875, 692.5791015625, 1], "name" : "Camera"}, {"matrix" : [100, 0, 0, 0, 0, 99.99999999999972, -7.549790126404325E-06, 0, 0, 7.549790126404325E-06, 99.99999999999972, 0, 0, 0, 0, 1], "mesh" : 0, "name" : "base"}], "scene" : 0, "scenes" : [{"nodes" : [0, 1]}]}